<svg xmlns="http://www.w3.org/2000/svg" viewBox="0 0 100 100">
  <path d="M50 5 L10 20 V45 C10 70 30 90 50 95 C70 90 90 70 90 45 V20 Z" fill="#f7931a"/>
  <path d="M64 52.8c.8-5.3-3.2-8.2-8.6-10l1.7-6.8-4.1-1-1.7 6.6c-1.1-.3-2.2-.5-3.3-.8l1.7-6.7-4.1-1-1.8 7c-1-.2-2-.5-3-.8l-6.1-1.5-.4 1.7s1.6.4 1.6.4c.9.2 1 .8 1 1.2l-1 4.1c.1 0 .2.1.4.1l-.4-.1-1.4 5.7c-.1.2-.4.6-1 .4l-1.6-.4-.6 1.8 5.8 1.4c1.1.3 2.2.6 3.3.8l-1.8 7.1 4.1 1 1.7-6.8c1.1.3 2.3.6 3.4.8l-1.7 6.9 4.1 1 1.8-7.2c7.3 1.4 12.8.8 15-5.9 1.8-5.3-.2-8.3-4-10.3 2.8-1.3 4.8-4 4.3-8zm-8 12.2c-1.1 4.4-8.5 2.1-10.9 1.5l1.9-7.7c2.4.6 10.2 1.6 9 6.2zm1-11c-1 4-7.4 2-9.4 1.5l1.7-6.9c2 .5 8.7 1.3 7.7 5.4z" fill="#121212"/>
</svg>
